<?xml version="1.0" encoding="UTF-8" standalone="no"?>
<svg width="16px" height="16px" viewBox="0 0 16 16" version="1.1" xmlns="http://www.w3.org/2000/svg" xmlns:xlink="http://www.w3.org/1999/xlink">
    <!-- Generator: Sketch 40.2 (33826) - http://www.bohemiancoding.com/sketch -->
    <title>Calendar Panel</title>
    <desc>Created with Sketch.</desc>
    <defs>
        <rect id="path-1" x="0" y="1" width="16" height="15" rx="2"></rect>
        <mask id="mask-2" maskContentUnits="userSpaceOnUse" maskUnits="objectBoundingBox" x="0" y="0" width="16" height="15" fill="white">
            <use xlink:href="#path-1"></use>
        </mask>
        <rect id="path-3" x="0" y="1" width="16" height="4" rx="2"></rect>
        <mask id="mask-4" maskContentUnits="userSpaceOnUse" maskUnits="objectBoundingBox" x="0" y="0" width="16" height="4" fill="white">
            <use xlink:href="#path-3"></use>
        </mask>
    </defs>
    <g id="Page-1" stroke="none" stroke-width="1" fill="none" fill-rule="evenodd">
        <g id="Calendar-Panel">
            <use id="Rectangle-Copy" stroke="#979797" mask="url(#mask-2)" stroke-width="2" xlink:href="#path-1"></use>
            <use id="Rectangle-Copy-2" stroke="#025B80" mask="url(#mask-4)" stroke-width="2" fill="#A2BFD4" xlink:href="#path-3"></use>
            <rect id="Rectangle-4" fill="#025B80" x="3" y="0" width="2" height="3"></rect>
            <rect id="Rectangle-4-Copy" fill="#025B80" x="11" y="0" width="2" height="3"></rect>
            <path d="M5.0720756,12.0877241 L7.65095756,12.0877241 L7.65095756,13.0699417 L3,13.0699417 L5.40396649,10.1591688 C5.64017831,9.86913661 5.83826436,9.61797845 5.9982306,9.40568681 C6.15819683,9.19339518 6.28003844,9.01549147 6.36375908,8.87197037 C6.5341904,8.59090821 6.61940477,8.33825505 6.61940477,8.11400332 C6.61940477,7.79108084 6.5057856,7.52048781 6.27854385,7.30221613 C6.0513021,7.08394445 5.77024416,6.97481025 5.43536158,6.97481025 C4.73569619,6.97481025 4.33503911,7.38892222 4.23337833,8.2171586 L3.19285552,8.2171586 C3.36029681,6.75802737 4.09732643,6.02847269 5.40396649,6.02847269 C6.03486135,6.02847269 6.56408749,6.22880123 6.99166078,6.62946431 C7.42222409,7.0301274 7.63750252,7.52646378 7.63750252,8.11848833 C7.63750252,8.49523124 7.53733825,8.86449354 7.33700671,9.22628633 C7.23534593,9.41465778 7.08659451,9.63815865 6.89074801,9.89679564 C6.6949015,10.1554326 6.4474808,10.4611579 6.1484785,10.8139806 L5.0720756,12.0877241 Z M10.8173761,9.85418802 L10.8173761,8.96167061 C11.2598995,8.96167061 11.5574023,8.91233597 11.7098935,8.81366521 C11.9819856,8.64024388 12.1180296,8.36217591 12.1180296,7.97945296 C12.1180296,7.68344068 12.0193603,7.44274744 11.8220188,7.25736601 C11.6276673,7.06899456 11.3750142,6.97481025 11.0640518,6.97481025 C10.7740195,6.97481025 10.5497712,7.04507473 10.3913,7.18560582 C10.2388088,7.32912692 10.1251896,7.57131515 10.050439,7.91217778 L9.00991623,7.91217778 C9.11755706,7.26035276 9.33881544,6.78270375 9.67369802,6.47921641 C10.0085806,6.17572907 10.4765122,6.02398768 11.0775068,6.02398768 C11.6844815,6.02398768 12.1793229,6.20338637 12.5620458,6.56218913 C12.9447688,6.91800187 13.1361274,7.37696352 13.1361274,7.93908785 C13.1361274,8.57297273 12.8849692,9.06631913 12.3826453,9.41914185 C12.9567298,9.75701445 13.2437677,10.3056754 13.2437677,11.0651413 C13.2437677,11.6870661 13.0344692,12.1953624 12.615866,12.5900454 C12.1972627,12.9847284 11.6605617,13.182067 11.0057466,13.182067 C10.1715302,13.182067 9.55260471,12.8755942 9.1489516,12.2626395 C8.98151032,12.0054975 8.87536609,11.6496901 8.83051574,11.1952066 L9.83964347,11.1952066 C9.89346388,11.5300892 10.0242754,11.7864799 10.232082,11.9643862 C10.4398886,12.1422926 10.7112291,12.2312444 11.0461117,12.2312444 C11.3839843,12.2312444 11.6635473,12.1191203 11.884809,11.8948685 C12.1060707,11.6646368 12.2166999,11.3731139 12.2166999,11.0202912 C12.2166999,10.5538476 12.0507561,10.22196 11.7188635,10.0246185 C11.524512,9.91099761 11.2240192,9.85418802 10.8173761,9.85418802 L10.8173761,9.85418802 Z" id="23" fill="#000000"></path>
        </g>
    </g>
</svg>