<?xml version="1.0" encoding="UTF-8" standalone="no"?>
<svg width="16px" height="16px" viewBox="0 0 16 16" version="1.1" xmlns="http://www.w3.org/2000/svg" xmlns:xlink="http://www.w3.org/1999/xlink">
    <!-- Generator: Sketch 40.2 (33826) - http://www.bohemiancoding.com/sketch -->
    <title>Calendar Day</title>
    <desc>Created with Sketch.</desc>
    <defs>
        <rect id="path-1" x="0" y="1" width="16" height="4" rx="2"></rect>
        <mask id="mask-2" maskContentUnits="userSpaceOnUse" maskUnits="objectBoundingBox" x="0" y="0" width="16" height="4" fill="white">
            <use xlink:href="#path-1"></use>
        </mask>
    </defs>
    <g id="Page-1" stroke="none" stroke-width="1" fill="none" fill-rule="evenodd">
        <g id="Calendar-Day">
            <g id="Group">
                <path d="M1,14.0081158 C1,14.5547504 1.44548879,15 1.99406028,15 L14.0059397,15 C14.5541825,15 15,14.5549376 15,14.0081158 L15,2.99188419 C15,2.44524961 14.5545112,2 14.0059397,2 L1.99406028,2 C1.44581752,2 1,2.44506236 1,2.99188419 L1,14.0081158 Z M1.99406028,1 L14.0059397,1 C15.1072288,1 16,1.89339733 16,2.99188419 L16,14.0081158 C16,15.1082031 15.1054862,16 14.0059397,16 L1.99406028,16 C0.892771196,16 0,15.1066027 0,14.0081158 L0,2.99188419 C0,1.89179693 0.894513756,1 1.99406028,1 Z" id="Rectangle-Copy" fill="#979797"></path>
                <polygon id="Path-2" fill="#4A4A4A" points="9.015625 14 7 14 7 7.96875 5 7.984375 6.0625 6 9.03149414 6"></polygon>
                <use id="Rectangle-Copy-2" stroke="#025B80" mask="url(#mask-2)" stroke-width="2" fill="#A2BFD4" xlink:href="#path-1"></use>
                <rect id="Rectangle-4" fill="#025B80" x="3" y="0" width="2" height="3"></rect>
                <rect id="Rectangle-4-Copy" fill="#025B80" x="11" y="0" width="2" height="3"></rect>
            </g>
        </g>
    </g>
</svg>