<?xml version="1.0" encoding="UTF-8" standalone="no"?>
<svg width="16px" height="16px" viewBox="0 0 16 16" version="1.1" xmlns="http://www.w3.org/2000/svg" xmlns:xlink="http://www.w3.org/1999/xlink">
    <!-- Generator: Sketch 40.2 (33826) - http://www.bohemiancoding.com/sketch -->
    <title>Pack</title>
    <desc>Created with Sketch.</desc>
    <defs></defs>
    <g id="Page-1" stroke="none" stroke-width="1" fill="none" fill-rule="evenodd">
        <g id="Pack" fill="#025B80">
            <path d="M15,8 C15,4.13400675 11.8659932,1 8,1 C4.13400675,1 1,4.13400675 1,8 C1,11.8659932 4.13400675,15 8,15 C11.8659932,15 15,11.8659932 15,8 Z M0,8 C0,3.581722 3.581722,0 8,0 C12.418278,0 16,3.581722 16,8 C16,12.418278 12.418278,16 8,16 C3.581722,16 0,12.418278 0,8 Z" id="Oval"></path>
            <path d="M13.5,5 C13.5,2.51471863 11.4852814,0.5 9,0.5 C6.51471863,0.5 4.5,2.51471863 4.5,5 C4.5,7.48528137 6.51471863,9.5 9,9.5 C11.4852814,9.5 13.5,7.48528137 13.5,5 Z M5.5,5 C5.5,3.06700338 7.06700338,1.5 9,1.5 C10.9329966,1.5 12.5,3.06700338 12.5,5 C12.5,6.93299662 10.9329966,8.5 9,8.5 C7.06700338,8.5 5.5,6.93299662 5.5,5 Z" id="Oval-2"></path>
            <path d="M6.5,9.5 C6.5,7.84314575 5.15685425,6.5 3.5,6.5 C1.84314575,6.5 0.5,7.84314575 0.5,9.5 C0.5,11.1568542 1.84314575,12.5 3.5,12.5 C5.15685425,12.5 6.5,11.1568542 6.5,9.5 Z M1.5,9.5 C1.5,8.3954305 2.3954305,7.5 3.5,7.5 C4.6045695,7.5 5.5,8.3954305 5.5,9.5 C5.5,10.6045695 4.6045695,11.5 3.5,11.5 C2.3954305,11.5 1.5,10.6045695 1.5,9.5 Z" id="Oval-3"></path>
            <path d="M12.5,12 C12.5,10.0670034 10.9329966,8.5 9,8.5 C7.06700338,8.5 5.5,10.0670034 5.5,12 C5.5,13.9329966 7.06700338,15.5 9,15.5 C10.9329966,15.5 12.5,13.9329966 12.5,12 Z M6.5,12 C6.5,10.6192881 7.61928813,9.5 9,9.5 C10.3807119,9.5 11.5,10.6192881 11.5,12 C11.5,13.3807119 10.3807119,14.5 9,14.5 C7.61928813,14.5 6.5,13.3807119 6.5,12 Z" id="Oval-4"></path>
        </g>
    </g>
</svg>