<?xml version="1.0" encoding="UTF-8" standalone="no"?>
<svg width="16px" height="16px" viewBox="0 0 16 16" version="1.1" xmlns="http://www.w3.org/2000/svg" xmlns:xlink="http://www.w3.org/1999/xlink">
    <!-- Generator: Sketch 40.2 (33826) - http://www.bohemiancoding.com/sketch -->
    <title>SVG</title>
    <desc>Created with Sketch.</desc>
    <defs></defs>
    <g id="Page-1" stroke="none" stroke-width="1" fill="none" fill-rule="evenodd">
        <g id="SVG">
            <path d="M2,1 L3,0 L3,16 L2,15 L14,15 L13,16 L13,4 L13.2928932,4.70710678 L9.29289322,0.707106781 L10,1 L2,1 Z M10,0 L14,4 L14,16 L2,16 L2,0 L10,0 Z" id="Rectangle-5" fill="#83A6BA"></path>
            <rect id="Rectangle" fill="#F8A444" x="3" y="9" width="10" height="6"></rect>
            <path d="M9.25,5 L9,5 L9,4.5 L9,0.5 L9,0 L10,0 L10,0.5 L10,4 L13.5,4 L14,4 L14,5 L13.5,5 L9.5,5 L9.25,5 Z" id="Combined-Shape" fill="#83A6BA"></path>
            <path d="M2,9 L3,8 L3,16 L2,15 L14,15 L13,16 L13,8 L14,9 L2,9 Z M14,8 L14,16 L2,16 L2,8 L14,8 Z" id="Rectangle-6" fill="#EA8A53"></path>
            <path d="M5.63306763,12.7651364 C5.63306763,13.0064328 5.57392705,13.2206688 5.45564412,13.407851 C5.3373612,13.5950331 5.16679635,13.7405184 4.94394446,13.8443114 C4.72109257,13.9481043 4.45967408,14 4.15968115,14 C3.90940134,14 3.69940944,13.9818143 3.52969915,13.9454424 C3.35998887,13.9090706 3.18342425,13.8456425 3,13.7551564 L3,12.8183633 C3.19370972,12.9212691 3.39513052,13.0015522 3.60426845,13.0592149 C3.81340638,13.1168776 4.00539897,13.1457086 4.18025199,13.1457086 C4.33110558,13.1457086 4.44167274,13.1186519 4.5119568,13.0645376 C4.58224086,13.0104233 4.61738236,12.9407855 4.61738236,12.8556221 C4.61738236,12.8023949 4.60324005,12.7558219 4.574955,12.7159015 C4.54666995,12.6759812 4.50124313,12.6356179 4.43867318,12.5948104 C4.37610323,12.5540029 4.20939537,12.470615 3.93854461,12.344644 C3.69340753,12.2293186 3.50955748,12.1175432 3.38698894,12.0093147 C3.2644204,11.9010862 3.17356677,11.7768914 3.1144253,11.6367265 C3.05528384,11.4965617 3.02571355,11.3306729 3.02571355,11.1390552 C3.02571355,10.7806591 3.15170869,10.5012208 3.40370275,10.3007319 C3.65569681,10.100243 4.00196917,10 4.44253021,10 C4.8316639,10 5.22850573,10.0931461 5.63306763,10.2794411 L5.32193366,11.091151 C4.97051337,10.9243726 4.6670965,10.8409847 4.41167395,10.8409847 C4.27967706,10.8409847 4.18368077,10.8649366 4.12368218,10.912841 C4.06368359,10.9607454 4.03368475,11.0201815 4.03368475,11.091151 C4.03368475,11.1674433 4.07182614,11.2357504 4.14811005,11.2960745 C4.22439397,11.3563986 4.43138599,11.4663997 4.76909231,11.6260812 C5.09308467,11.7768914 5.318076,11.9387882 5.44407303,12.1117764 C5.57007006,12.2847647 5.63306763,12.5025491 5.63306763,12.7651364 L5.63306763,12.7651364 Z M8.32309826,10 L9.45865381,10 L8.22804044,14 L7.03339489,14 L5.80791977,10 L6.94861359,10 L7.4598705,12.0273598 C7.56606175,12.4778864 7.62429479,12.7916088 7.63457136,12.9685363 C7.64656069,12.8408566 7.670539,12.6812595 7.706507,12.4897401 C7.74247501,12.2982207 7.77416063,12.1477434 7.80156482,12.0383037 L8.32309826,10 Z M11.3774749,11.6686627 L13,11.6686627 L13,13.7658017 C12.559439,13.9219347 12.0751719,14 11.5471844,14 C10.9677695,14 10.5199296,13.8261273 10.2036513,13.4783766 C9.88737307,13.1306259 9.72923631,12.6347338 9.72923631,11.9906853 C9.72923631,11.362605 9.90237249,10.8738097 10.24865,10.5242848 C10.5949276,10.1747598 11.0800517,10 11.704037,10 C11.9406029,10 12.16388,10.0230648 12.373875,10.0691949 C12.5838701,10.1153251 12.766863,10.1738741 12.9228593,10.2448436 L12.60144,11.0698603 C12.3305892,10.9314697 12.0331721,10.8622754 11.7091797,10.8622754 C11.4126153,10.8622754 11.1833384,10.9620749 11.0213422,11.1616766 C10.8593461,11.3612784 10.7783492,11.646483 10.7783492,12.0172987 C10.7783492,12.3810176 10.8516321,12.6582381 10.9982001,12.8489687 C11.144768,13.0396993 11.3560456,13.1350632 11.6320391,13.1350632 C11.7828927,13.1350632 11.9217445,13.1199824 12.0485986,13.0898204 L12.0485986,12.4803726 L11.3774749,12.4803726 L11.3774749,11.6686627 Z" fill="#FFFFFF"></path>
        </g>
    </g>
</svg>