<?xml version="1.0" encoding="UTF-8" standalone="no"?>
<svg width="16px" height="16px" viewBox="0 0 16 16" version="1.1" xmlns="http://www.w3.org/2000/svg" xmlns:xlink="http://www.w3.org/1999/xlink">
    <!-- Generator: Sketch 41 (35326) - http://www.bohemiancoding.com/sketch -->
    <title>Filter Label</title>
    <desc>Created with Sketch.</desc>
    <defs>
        <rect id="path-1" x="0" y="0" width="16" height="16" rx="2"></rect>
        <mask id="mask-2" maskContentUnits="userSpaceOnUse" maskUnits="objectBoundingBox" x="0" y="0" width="16" height="16" fill="white">
            <use xlink:href="#path-1"></use>
        </mask>
        <rect id="path-3" x="0" y="0" width="16" height="4" rx="2"></rect>
        <mask id="mask-4" maskContentUnits="userSpaceOnUse" maskUnits="objectBoundingBox" x="0" y="0" width="16" height="4" fill="white">
            <use xlink:href="#path-3"></use>
        </mask>
        <rect id="path-5" x="3" y="9" width="13" height="7"></rect>
        <mask id="mask-6" maskContentUnits="userSpaceOnUse" maskUnits="objectBoundingBox" x="0" y="0" width="13" height="7" fill="white">
            <use xlink:href="#path-5"></use>
        </mask>
        <rect id="path-7" x="2" y="5" width="14" height="5"></rect>
        <mask id="mask-8" maskContentUnits="userSpaceOnUse" maskUnits="objectBoundingBox" x="0" y="0" width="14" height="5" fill="white">
            <use xlink:href="#path-7"></use>
        </mask>
    </defs>
    <g id="Page-1" stroke="none" stroke-width="1" fill="none" fill-rule="evenodd">
        <g id="Filter-Label">
            <use id="Rectangle" stroke="#979797" mask="url(#mask-2)" stroke-width="2" xlink:href="#path-1"></use>
            <use id="Rectangle" stroke="#025B80" mask="url(#mask-4)" stroke-width="2" fill="#A2BFD4" xlink:href="#path-3"></use>
            <use id="Rectangle-2" stroke="#979797" mask="url(#mask-6)" stroke-width="2" xlink:href="#path-5"></use>
            <polygon id="Line" fill="#979797" points="7 10 7 16 8 16 8 10"></polygon>
            <polygon id="Line" fill="#979797" points="3 13 16 13 16 12 3 12"></polygon>
            <polygon id="Line" fill="#979797" points="11 10 11 16 12 16 12 10"></polygon>
            <use id="Rectangle-15" stroke="#979797" mask="url(#mask-8)" stroke-width="2" xlink:href="#path-7"></use>
            <path d="M5.43579508,8.52514437 L5.29474385,8.06207052 L4.58549568,8.06207052 L4.44444444,8.52514437 L4,8.52514437 L4.68662675,6.57171789 L5.19095143,6.57171789 L5.88023952,8.52514437 L5.43579508,8.52514437 Z M5.19627412,7.7160958 C5.06586761,7.29648847 4.99245961,7.05918767 4.9760479,7.00418629 C4.9596362,6.9491849 4.94788205,6.90571672 4.9407851,6.87378043 C4.91151017,6.98733168 4.82767867,7.26810066 4.68928809,7.7160958 L5.19627412,7.7160958 Z M6.12508317,6.57970192 L6.73053892,6.57970192 C7.00643296,6.57970192 7.20669709,6.61895636 7.33133733,6.6974664 C7.45597756,6.77597644 7.51829674,6.90083657 7.51829674,7.07205056 C7.51829674,7.18826316 7.49101824,7.28362703 7.43646041,7.35814504 C7.38190259,7.43266304 7.30938169,7.47746188 7.21889554,7.49254291 L7.21889554,7.50584963 C7.3422051,7.53335032 7.43113745,7.58480246 7.48569528,7.66020758 C7.5402531,7.7356127 7.5675316,7.83585566 7.5675316,7.96093945 C7.5675316,8.13836327 7.50343821,8.27675177 7.3752495,8.37610911 C7.24706079,8.47546645 7.07296628,8.52514437 6.85296075,8.52514437 L6.12508317,8.52514437 L6.12508317,6.57970192 Z M6.53759148,7.35016101 L6.77711244,7.35016101 C6.88888945,7.35016101 6.96983785,7.33286244 7.01996008,7.2982648 C7.07008231,7.26366715 7.09514305,7.20644883 7.09514305,7.12660811 C7.09514305,7.05209011 7.06786454,6.99864198 7.01330672,6.96626214 C6.9587489,6.93388229 6.87247786,6.91769261 6.75449102,6.91769261 L6.53759148,6.91769261 L6.53759148,7.35016101 Z M6.53759148,7.67750632 L6.53759148,8.18449234 L6.80638723,8.18449234 C6.91993847,8.18449234 7.00376997,8.16275825 7.05788423,8.11928942 C7.1119985,8.07582058 7.13905522,8.00928765 7.13905522,7.91968862 C7.13905522,7.75823294 7.02373147,7.67750632 6.79308051,7.67750632 L6.53759148,7.67750632 Z M8.78243513,6.89507119 C8.62718929,6.89507119 8.50698645,6.95339839 8.42182302,7.07005455 C8.33665959,7.18671071 8.29407851,7.34927285 8.29407851,7.55774584 C8.29407851,7.99154707 8.45686242,8.20844444 8.78243513,8.20844444 C8.91905147,8.20844444 9.0844967,8.17429087 9.27877578,8.1059827 L9.27877578,8.45195741 C9.11909434,8.51849135 8.94078608,8.55175781 8.74384564,8.55175781 C8.46085465,8.55175781 8.24440084,8.46593033 8.09447771,8.29427278 C7.94455458,8.12261524 7.86959415,7.8762216 7.86959415,7.55508449 C7.86959415,7.35282134 7.90640904,7.17562196 7.98003992,7.02348103 C8.05367081,6.87134011 8.15945817,6.7546857 8.29740519,6.6735143 C8.43535221,6.5923429 8.59702724,6.55175781 8.78243513,6.55175781 C8.9713915,6.55175781 9.16123214,6.59744376 9.35196274,6.68881703 L9.21889554,7.02414637 C9.14615178,6.98954872 9.07296555,6.95938713 8.99933466,6.93366067 C8.92570378,6.90793422 8.85340466,6.89507119 8.78243513,6.89507119 Z" id="ABC" fill="#000000"></path>
        </g>
    </g>
</svg>