<?xml version="1.0" encoding="UTF-8" standalone="no"?>
<svg width="16px" height="16px" viewBox="0 0 16 16" version="1.1" xmlns="http://www.w3.org/2000/svg" xmlns:xlink="http://www.w3.org/1999/xlink">
    <!-- Generator: Sketch 41 (35326) - http://www.bohemiancoding.com/sketch -->
    <title>Filter Value</title>
    <desc>Created with Sketch.</desc>
    <defs>
        <rect id="path-1" x="0" y="0" width="16" height="16" rx="2"></rect>
        <mask id="mask-2" maskContentUnits="userSpaceOnUse" maskUnits="objectBoundingBox" x="0" y="0" width="16" height="16" fill="white">
            <use xlink:href="#path-1"></use>
        </mask>
        <rect id="path-3" x="0" y="0" width="16" height="4" rx="2"></rect>
        <mask id="mask-4" maskContentUnits="userSpaceOnUse" maskUnits="objectBoundingBox" x="0" y="0" width="16" height="4" fill="white">
            <use xlink:href="#path-3"></use>
        </mask>
        <rect id="path-5" x="3" y="9" width="13" height="7"></rect>
        <mask id="mask-6" maskContentUnits="userSpaceOnUse" maskUnits="objectBoundingBox" x="0" y="0" width="13" height="7" fill="white">
            <use xlink:href="#path-5"></use>
        </mask>
        <rect id="path-7" x="2" y="5" width="14" height="5"></rect>
        <mask id="mask-8" maskContentUnits="userSpaceOnUse" maskUnits="objectBoundingBox" x="0" y="0" width="14" height="5" fill="white">
            <use xlink:href="#path-7"></use>
        </mask>
    </defs>
    <g id="Page-1" stroke="none" stroke-width="1" fill="none" fill-rule="evenodd">
        <g id="Filter-Value">
            <use id="Rectangle" stroke="#979797" mask="url(#mask-2)" stroke-width="2" xlink:href="#path-1"></use>
            <use id="Rectangle" stroke="#025B80" mask="url(#mask-4)" stroke-width="2" fill="#A2BFD4" xlink:href="#path-3"></use>
            <use id="Rectangle-2" stroke="#979797" mask="url(#mask-6)" stroke-width="2" xlink:href="#path-5"></use>
            <polygon id="Line" fill="#979797" points="7 10 7 16 8 16 8 10"></polygon>
            <polygon id="Line" fill="#979797" points="3 13 16 13 16 12 3 12"></polygon>
            <polygon id="Line" fill="#979797" points="11 10 11 16 12 16 12 10"></polygon>
            <use id="Rectangle-15" stroke="#979797" mask="url(#mask-8)" stroke-width="2" xlink:href="#path-7"></use>
            <path d="M5.08290125,8.52514437 L4.67172361,8.52514437 L4.67172361,7.39939587 L4.67571563,7.21443246 L4.68236899,7.01217032 C4.61406082,7.08047849 4.56660066,7.12527733 4.53998708,7.14656819 L4.31643419,7.32620891 L4.11816406,7.07870392 L4.74491057,6.57970192 L5.08290125,6.57970192 L5.08290125,8.52514437 Z M6.98177018,8.52514437 L5.62182341,8.52514437 L5.62182341,8.2390499 L6.11018003,7.74537059 C6.25478044,7.5972217 6.34925721,7.4945392 6.39361316,7.43732002 C6.43796912,7.38010084 6.46990493,7.32709627 6.48942155,7.27830472 C6.50893817,7.22951317 6.51869633,7.17894814 6.51869633,7.12660811 C6.51869633,7.04854163 6.49718402,6.9904362 6.45415874,6.95229008 C6.41113346,6.91414396 6.35369336,6.89507119 6.28183672,6.89507119 C6.20643159,6.89507119 6.13324537,6.91236975 6.06227584,6.94696739 C5.99130631,6.98156504 5.91723298,7.03079941 5.84005362,7.09467198 L5.61650072,6.82986826 C5.71230958,6.7482533 5.79170555,6.69059143 5.85469101,6.6568809 C5.91767646,6.62317037 5.98642716,6.59722253 6.06094517,6.57903659 C6.13546317,6.56085065 6.21885112,6.55175781 6.3111115,6.55175781 C6.43264682,6.55175781 6.53998662,6.57393546 6.63313412,6.61829141 C6.72628163,6.66264737 6.79858075,6.72474477 6.85003366,6.80458549 C6.90148656,6.88442621 6.92721263,6.97579811 6.92721263,7.07870392 C6.92721263,7.16830295 6.9114665,7.25235622 6.87997378,7.33086626 C6.84848105,7.4093763 6.79969023,7.48988115 6.73359986,7.57238323 C6.66750948,7.6548853 6.55107685,7.77242682 6.38429846,7.92501131 L6.13413213,8.16054025 L6.13413213,8.17916966 L6.98177018,8.17916966 L6.98177018,8.52514437 Z M8.46147744,7.01483166 C8.46147744,7.13636698 8.42466255,7.23971481 8.35103166,7.32487824 C8.27740078,7.41004167 8.17405295,7.46859065 8.04098509,7.50052694 L8.04098509,7.50851097 C8.19800517,7.52802759 8.31687734,7.57570953 8.39760518,7.65155821 C8.47833302,7.72740689 8.51869633,7.82964584 8.51869633,7.95827811 C8.51869633,8.14546023 8.45083274,8.29116736 8.31510352,8.39540385 C8.1793743,8.49964035 7.98554168,8.55175781 7.73359986,8.55175781 C7.52246551,8.55175781 7.33528619,8.51671713 7.17205628,8.44663473 L7.17205628,8.09666799 C7.2474614,8.13481411 7.33040579,8.16586282 7.42089194,8.18981503 C7.51137809,8.21376725 7.60097577,8.22574318 7.68968768,8.22574318 C7.8254169,8.22574318 7.92565986,8.20267842 7.99041955,8.15654823 C8.05517925,8.11041804 8.08755861,8.03634471 8.08755861,7.93432601 C8.08755861,7.84295274 8.05030016,7.77819402 7.97578216,7.7400479 C7.90126416,7.70190178 7.78239198,7.682829 7.61916207,7.682829 L7.47145748,7.682829 L7.47145748,7.36745974 L7.62182341,7.36745974 C7.77263366,7.36745974 7.88285655,7.34772164 7.9524954,7.30824484 C8.02213425,7.26876804 8.05695315,7.20112622 8.05695315,7.10531736 C8.05695315,6.95805559 7.96469415,6.88442581 7.78017338,6.88442581 C7.7163008,6.88442581 7.6513203,6.89507108 7.58522993,6.91636194 C7.51913956,6.9376528 7.44573155,6.97446769 7.36500372,7.02680771 L7.17471762,6.74337458 C7.35214144,6.61562943 7.56371617,6.55175781 7.80944816,6.55175781 C8.0108242,6.55175781 8.16983791,6.59256468 8.28649407,6.67417964 C8.40315023,6.75579459 8.46147744,6.86934413 8.46147744,7.01483166 Z" id="123" fill="#000000"></path>
        </g>
    </g>
</svg>