<?xml version="1.0" encoding="UTF-8" standalone="no"?>
<svg width="16px" height="16px" viewBox="0 0 16 16" version="1.1" xmlns="http://www.w3.org/2000/svg" xmlns:xlink="http://www.w3.org/1999/xlink">
    <!-- Generator: Sketch 41 (35326) - http://www.bohemiancoding.com/sketch -->
    <title>Left Axis Item</title>
    <desc>Created with Sketch.</desc>
    <defs>
        <rect id="path-1" x="0" y="0" width="16" height="16" rx="2"></rect>
        <mask id="mask-2" maskContentUnits="userSpaceOnUse" maskUnits="objectBoundingBox" x="0" y="0" width="16" height="16" fill="white">
            <use xlink:href="#path-1"></use>
        </mask>
        <rect id="path-3" x="0" y="0" width="16" height="4" rx="2"></rect>
        <mask id="mask-4" maskContentUnits="userSpaceOnUse" maskUnits="objectBoundingBox" x="0" y="0" width="16" height="4" fill="white">
            <use xlink:href="#path-3"></use>
        </mask>
        <rect id="path-5" x="3" y="6" width="13" height="10"></rect>
        <mask id="mask-6" maskContentUnits="userSpaceOnUse" maskUnits="objectBoundingBox" x="0" y="0" width="13" height="10" fill="white">
            <use xlink:href="#path-5"></use>
        </mask>
    </defs>
    <g id="Page-1" stroke="none" stroke-width="1" fill="none" fill-rule="evenodd">
        <g id="Left-Axis-Item">
            <use id="Rectangle" stroke="#025B80" mask="url(#mask-2)" stroke-width="2" xlink:href="#path-1"></use>
            <use id="Rectangle" stroke="#025B80" mask="url(#mask-4)" stroke-width="2" fill="#A2BFD4" xlink:href="#path-3"></use>
            <use id="Rectangle-2" stroke="#025B80" mask="url(#mask-6)" stroke-width="2" xlink:href="#path-5"></use>
            <polygon id="Line" fill="#025B80" points="7 6 7 16 8 16 8 6"></polygon>
            <polygon id="Line" fill="#025B80" points="3 10 16 10 16 9 3 9"></polygon>
            <polygon id="Line" fill="#025B80" points="3 13 16 13 16 12 3 12"></polygon>
            <polygon id="Line" fill="#025B80" points="11 6 11 16 12 16 12 6"></polygon>
            <rect id="Rectangle" fill="#83A6BA" x="4" y="7" width="3" height="2"></rect>
            <rect id="Rectangle-Copy-2" fill="#83A6BA" x="4" y="10" width="3" height="2"></rect>
            <rect id="Rectangle-Copy-3" fill="#83A6BA" x="4" y="13" width="3" height="2"></rect>
        </g>
    </g>
</svg>