<?xml version="1.0" encoding="UTF-8" standalone="no"?>
<svg width="16px" height="16px" viewBox="0 0 16 16" version="1.1" xmlns="http://www.w3.org/2000/svg" xmlns:xlink="http://www.w3.org/1999/xlink">
    <!-- Generator: Sketch 41 (35326) - http://www.bohemiancoding.com/sketch -->
    <title>Local Matrix</title>
    <desc>Created with Sketch.</desc>
    <defs>
        <rect id="path-1" x="0" y="0" width="16" height="16" rx="2"></rect>
        <mask id="mask-2" maskContentUnits="userSpaceOnUse" maskUnits="objectBoundingBox" x="0" y="0" width="16" height="16" fill="white">
            <use xlink:href="#path-1"></use>
        </mask>
        <rect id="path-3" x="0" y="0" width="16" height="4" rx="2"></rect>
        <mask id="mask-4" maskContentUnits="userSpaceOnUse" maskUnits="objectBoundingBox" x="0" y="0" width="16" height="4" fill="white">
            <use xlink:href="#path-3"></use>
        </mask>
        <rect id="path-5" x="3" y="6" width="13" height="10"></rect>
        <mask id="mask-6" maskContentUnits="userSpaceOnUse" maskUnits="objectBoundingBox" x="0" y="0" width="13" height="10" fill="white">
            <use xlink:href="#path-5"></use>
        </mask>
    </defs>
    <g id="Page-1" stroke="none" stroke-width="1" fill="none" fill-rule="evenodd">
        <g id="Local-Matrix">
            <use id="Rectangle" stroke="#979797" mask="url(#mask-2)" stroke-width="2" xlink:href="#path-1"></use>
            <use id="Rectangle" stroke="#025B80" mask="url(#mask-4)" stroke-width="2" fill="#A2BFD4" xlink:href="#path-3"></use>
            <use id="Rectangle-2" stroke="#979797" mask="url(#mask-6)" stroke-width="2" xlink:href="#path-5"></use>
            <polygon id="Line" fill="#979797" points="7 6 7 16 8 16 8 6"></polygon>
            <polygon id="Line" fill="#979797" points="3 10 16 10 16 9 3 9"></polygon>
            <polygon id="Line" fill="#979797" points="3 13 16 13 16 12 3 12"></polygon>
            <polygon id="Line" fill="#979797" points="11 6 11 16 12 16 12 6"></polygon>
            <rect id="Rectangle-14" fill="#025B80" x="6" y="5" width="7" height="8"></rect>
            <path d="M9.5,9.24519588 C10.0143255,9.24519588 10.4950064,9.19720529 10.9420573,9.10122266 C11.3891081,9.00524004 11.7417522,8.86350039 12,8.67599945 L12,9.24519588 C12,9.39921451 11.888239,9.54207022 11.6647135,9.67376731 C11.4411881,9.80546439 11.1373717,9.90981603 10.7532552,9.98682534 C10.3691387,10.0638347 9.95139115,10.1023387 9.5,10.1023387 C9.04860885,10.1023387 8.6308613,10.0638347 8.24674479,9.98682534 C7.86262829,9.90981603 7.55881188,9.80546439 7.33528646,9.67376731 C7.11176104,9.54207022 7,9.39921451 7,9.24519588 L7,8.67599945 C7.25824782,8.86350039 7.61089186,9.00524004 8.05794271,9.10122266 C8.50499355,9.19720529 8.98567451,9.24519588 9.5,9.24519588 Z M9.5,11.1428571 C10.0143255,11.1428571 10.4950064,11.0948666 10.9420573,10.9988839 C11.3891081,10.9029013 11.7417522,10.7611617 12,10.5736607 L12,11.1428571 C12,11.2968758 11.888239,11.4397315 11.6647135,11.5714286 C11.4411881,11.7031257 11.1373717,11.8074773 10.7532552,11.8844866 C10.3691387,11.9614959 9.95139115,12 9.5,12 C9.04860885,12 8.6308613,11.9614959 8.24674479,11.8844866 C7.86262829,11.8074773 7.55881188,11.7031257 7.33528646,11.5714286 C7.11176104,11.4397315 7,11.2968758 7,11.1428571 L7,10.5736607 C7.25824782,10.7611617 7.61089186,10.9029013 8.05794271,10.9988839 C8.50499355,11.0948666 8.98567451,11.1428571 9.5,11.1428571 Z M9.5,6 C9.95139115,6 10.3691387,6.03850408 10.7532552,6.11551339 C11.1373717,6.19252271 11.4411881,6.29687434 11.6647135,6.42857143 C11.888239,6.56026852 12,6.70312423 12,6.85714286 L12,7.28571429 C12,7.43973291 11.888239,7.58258863 11.6647135,7.71428571 C11.4411881,7.8459828 11.1373717,7.95033444 10.7532552,8.02734375 C10.3691387,8.10435306 9.95139115,8.14285714 9.5,8.14285714 C9.04860885,8.14285714 8.6308613,8.10435306 8.24674479,8.02734375 C7.86262829,7.95033444 7.55881188,7.8459828 7.33528646,7.71428571 C7.11176104,7.58258863 7,7.43973291 7,7.28571429 L7,6.85714286 C7,6.70312423 7.11176104,6.56026852 7.33528646,6.42857143 C7.55881188,6.29687434 7.86262829,6.19252271 8.24674479,6.11551339 C8.6308613,6.03850408 9.04860885,6 9.5,6 Z" id="" fill="#FFFFFF"></path>
        </g>
    </g>
</svg>