<?xml version="1.0" encoding="UTF-8" standalone="no"?>
<svg width="16px" height="16px" viewBox="0 0 16 16" version="1.1" xmlns="http://www.w3.org/2000/svg" xmlns:xlink="http://www.w3.org/1999/xlink">
    <!-- Generator: Sketch 41 (35326) - http://www.bohemiancoding.com/sketch -->
    <title>Pivot D3 Heat Map</title>
    <desc>Created with Sketch.</desc>
    <defs></defs>
    <g id="Page-1" stroke="none" stroke-width="1" fill="none" fill-rule="evenodd">
        <g id="Pivot-D3-Heat-Map">
            <rect id="Rectangle-9" fill="#83A6BA" x="0" y="12" width="4" height="4"></rect>
            <rect id="Rectangle-9-Copy-6" fill="#83A6BA" x="0" y="6" width="4" height="4"></rect>
            <rect id="Rectangle-9-Copy" fill="#025B80" x="6" y="12" width="4" height="4"></rect>
            <rect id="Rectangle-9-Copy-5" fill="#83A6BA" x="6" y="6" width="4" height="4"></rect>
            <rect id="Rectangle-9-Copy-2" fill="#025B80" x="12" y="12" width="4" height="4"></rect>
            <rect id="Rectangle-9-Copy-3" fill="#025B80" x="12" y="6" width="4" height="4"></rect>
            <rect id="Rectangle-9-Copy-4" fill="#83A6BA" x="12" y="0" width="4" height="4"></rect>
            <path d="M0,13 L1,12 L1,16 L0,15 L4,15 L3,16 L3,12 L4,13 L0,13 Z M4,12 L4,16 L0,16 L0,12 L4,12 Z" id="Rectangle-9" fill="#025B80"></path>
            <path d="M6,7 L7,6 L7,10 L6,9 L10,9 L9,10 L9,6 L10,7 L6,7 Z M10,6 L10,10 L6,10 L6,6 L10,6 Z" id="Rectangle-9-Copy-5" fill="#025B80"></path>
            <path d="M12,1 L13,0 L13,4 L12,3 L16,3 L15,4 L15,0 L16,1 L12,1 Z M16,0 L16,4 L12,4 L12,0 L16,0 Z" id="Rectangle-9-Copy-4" fill="#025B80"></path>
            <rect id="Rectangle-9-Copy-7" fill="#83A6BA" x="6" y="0" width="4" height="4"></rect>
            <rect id="Rectangle-9-Copy-8" fill="#83A6BA" x="0" y="0" width="4" height="4"></rect>
        </g>
    </g>
</svg>