<?xml version="1.0" encoding="UTF-8" standalone="no"?>
<svg width="16px" height="16px" viewBox="0 0 16 16" version="1.1" xmlns="http://www.w3.org/2000/svg" xmlns:xlink="http://www.w3.org/1999/xlink">
    <!-- Generator: Sketch 41 (35326) - http://www.bohemiancoding.com/sketch -->
    <title>Remote Matrix</title>
    <desc>Created with Sketch.</desc>
    <defs>
        <rect id="path-1" x="0" y="0" width="16" height="16" rx="2"></rect>
        <mask id="mask-2" maskContentUnits="userSpaceOnUse" maskUnits="objectBoundingBox" x="0" y="0" width="16" height="16" fill="white">
            <use xlink:href="#path-1"></use>
        </mask>
        <rect id="path-3" x="0" y="0" width="16" height="4" rx="2"></rect>
        <mask id="mask-4" maskContentUnits="userSpaceOnUse" maskUnits="objectBoundingBox" x="0" y="0" width="16" height="4" fill="white">
            <use xlink:href="#path-3"></use>
        </mask>
        <rect id="path-5" x="3" y="6" width="13" height="10"></rect>
        <mask id="mask-6" maskContentUnits="userSpaceOnUse" maskUnits="objectBoundingBox" x="0" y="0" width="13" height="10" fill="white">
            <use xlink:href="#path-5"></use>
        </mask>
    </defs>
    <g id="Page-1" stroke="none" stroke-width="1" fill="none" fill-rule="evenodd">
        <g id="Remote-Matrix">
            <use id="Rectangle" stroke="#979797" mask="url(#mask-2)" stroke-width="2" xlink:href="#path-1"></use>
            <use id="Rectangle" stroke="#025B80" mask="url(#mask-4)" stroke-width="2" fill="#A2BFD4" xlink:href="#path-3"></use>
            <use id="Rectangle-2" stroke="#979797" mask="url(#mask-6)" stroke-width="2" xlink:href="#path-5"></use>
            <polygon id="Line" fill="#979797" points="7 6 7 16 8 16 8 6"></polygon>
            <polygon id="Line" fill="#979797" points="3 10 16 10 16 9 3 9"></polygon>
            <polygon id="Line" fill="#979797" points="3 13 16 13 16 12 3 12"></polygon>
            <polygon id="Line" fill="#979797" points="11 6 11 16 12 16 12 6"></polygon>
            <rect id="Rectangle-14" fill="#025B80" x="6" y="8" width="7" height="6"></rect>
            <path d="M12,11.9966666 C12,12.2727096 11.9023447,12.5083844 11.7070313,12.7036978 C11.5117178,12.8990113 11.276043,12.9966666 11,12.9966666 L8.16666667,12.9966666 C7.84548451,12.9966666 7.57074767,12.8825184 7.34244792,12.6542187 C7.11414816,12.4259189 7,12.1511821 7,11.8299999 C7,11.6008321 7.06163133,11.3911988 7.18489583,11.2010937 C7.30816034,11.0109886 7.4704851,10.8690629 7.671875,10.7753124 C7.66840276,10.7267011 7.66666667,10.6893751 7.66666667,10.6633333 C7.66666667,10.2952759 7.7968737,9.98104289 8.05729167,9.72062492 C8.31770964,9.46020695 8.6319426,9.32999992 9,9.32999992 C9.27430693,9.32999992 9.52300236,9.40638805 9.74609375,9.55916659 C9.96918514,9.71194513 10.1319439,9.91159591 10.234375,10.1581249 C10.3559034,10.0504855 10.4999992,9.99666659 10.6666667,9.99666659 C10.8506954,9.99666659 11.0078118,10.0617701 11.1380208,10.1919791 C11.2682298,10.3221881 11.3333333,10.4793046 11.3333333,10.6633333 C11.3333333,10.7935422 11.2977434,10.9133327 11.2265625,11.0227083 C11.450522,11.0747919 11.6354159,11.1915442 11.78125,11.3729687 C11.9270841,11.5543932 12,11.7622904 12,11.9966666 Z" id="" fill="#FFFFFF"></path>
        </g>
    </g>
</svg>