<?xml version="1.0" encoding="UTF-8" standalone="no"?>
<svg width="8px" height="13px" viewBox="0 0 8 13" version="1.1" xmlns="http://www.w3.org/2000/svg" xmlns:xlink="http://www.w3.org/1999/xlink">
    <!-- Generator: Sketch 3.8.3 (29802) - http://www.bohemiancoding.com/sketch -->
    <title>build-native</title>
    <desc>Created with Sketch.</desc>
    <defs></defs>
    <g id="Page-1" stroke="none" stroke-width="1" fill="none" fill-rule="evenodd">
        <g id="Icons" transform="translate(-475.000000, -11.000000)" fill="white">
            <path d="M479.66072,22.7142842 C479.66072,23.156249 479.299112,23.5178566 478.857147,23.5178566 C478.415183,23.5178566 478.053575,23.156249 478.053575,22.7142842 C478.053575,22.2723194 478.415183,21.9107118 478.857147,21.9107118 C479.299112,21.9107118 479.66072,22.2723194 479.66072,22.7142842 L479.66072,22.7142842 Z M481.750008,21.1071394 C481.750008,21.2778985 481.599338,21.4285684 481.428579,21.4285684 L476.285716,21.4285684 C476.114957,21.4285684 475.964287,21.2778985 475.964287,21.1071394 L475.964287,14.0357024 C475.964287,13.8649433 476.114957,13.7142735 476.285716,13.7142735 L481.428579,13.7142735 C481.599338,13.7142735 481.750008,13.8649433 481.750008,14.0357024 L481.750008,21.1071394 Z M479.821434,12.5892721 C479.821434,12.679674 479.751122,12.7499866 479.66072,12.7499866 L478.053575,12.7499866 C477.963173,12.7499866 477.892861,12.679674 477.892861,12.5892721 C477.892861,12.4988702 477.963173,12.4285576 478.053575,12.4285576 L479.66072,12.4285576 C479.751122,12.4285576 479.821434,12.4988702 479.821434,12.5892721 L479.821434,12.5892721 Z M482.714295,12.4285576 C482.714295,11.7254318 482.131705,11.1428418 481.428579,11.1428418 L476.285716,11.1428418 C475.58259,11.1428418 475,11.7254318 475,12.4285576 L475,22.7142842 C475,23.41741 475.58259,24 476.285716,24 L481.428579,24 C482.131705,24 482.714295,23.41741 482.714295,22.7142842 L482.714295,12.4285576 Z" id="build-native"></path>
        </g>
    </g>
</svg>