<?xml version="1.0" encoding="UTF-8" standalone="no"?>
<svg width="13px" height="13px" viewBox="0 0 13 13" version="1.1" xmlns="http://www.w3.org/2000/svg" xmlns:xlink="http://www.w3.org/1999/xlink">
    <!-- Generator: Sketch 3.8.3 (29802) - http://www.bohemiancoding.com/sketch -->
    <title>build-app</title>
    <desc>Created with Sketch.</desc>
    <defs></defs>
    <g id="Page-1" stroke="none" stroke-width="1" fill="white" fill-rule="evenodd">
        <path d="M3.00000358,10.4999994 C3.00000358,10.7734372 2.77344081,11 2.50000298,11 C2.22656515,11 2.00000238,10.7734372 2.00000238,10.4999994 C2.00000238,10.2265616 2.22656515,9.99999881 2.50000298,9.99999881 C2.77344081,9.99999881 3.00000358,10.2265616 3.00000358,10.4999994 L3.00000358,10.4999994 Z M8.03125957,7.21874549 C7.00782085,6.81249501 6.18750738,5.99218153 5.78125689,4.96874281 L0.460938049,10.2890617 C0.273437826,10.4765619 0.164062696,10.7343747 0.164062696,11 C0.164062696,11.2656253 0.273437826,11.5234381 0.460938049,11.7031258 L1.28906404,12.5468768 C1.47656426,12.7265646 1.73437707,12.8359397 2.00000238,12.8359397 C2.2656277,12.8359397 2.52344051,12.7265646 2.70312822,12.5468768 L8.03125957,7.21874549 Z M12.9843905,3.82030394 C12.9843905,3.66405375 12.8906404,3.54686612 12.7343902,3.54686612 C12.57814,3.54686612 10.7656378,4.68749247 10.507825,4.83593015 L9.00001073,3.99999166 L9.00001073,2.24998957 L11.289076,0.929675495 C11.3593885,0.882800439 11.4140761,0.796862837 11.4140761,0.710925234 C11.4140761,0.617175123 11.3672011,0.546862539 11.289076,0.492174974 C10.8125129,0.171862092 10.0703245,-1.31130219e-05 9.50001132,-1.31130219e-05 C7.57032152,-1.31130219e-05 6.00000715,1.57030126 6.00000715,3.49999106 C6.00000715,5.42968086 7.57032152,6.99999523 9.50001132,6.99999523 C10.9765756,6.99999523 12.3125147,6.03905659 12.8047028,4.64842993 C12.8906404,4.39842963 12.9843905,4.07811675 12.9843905,3.82030394 L12.9843905,3.82030394 Z" id="build-app"></path>
    </g>
</svg>