<?xml version="1.0" encoding="UTF-8" standalone="no"?>
<svg width="7px" height="13px" viewBox="0 0 7 13" version="1.1" xmlns="http://www.w3.org/2000/svg" xmlns:xlink="http://www.w3.org/1999/xlink">
    <!-- Generator: Sketch 3.8.3 (29802) - http://www.bohemiancoding.com/sketch -->
    <title>data-ui-builder</title>
    <desc>Created with Sketch.</desc>
    <defs></defs>
    <g id="Page-1" stroke="none" stroke-width="1" fill="white" fill-rule="evenodd">
        <path d="M6.91371656,3.42187908 C6.84340398,3.3515665 6.74965387,3.30469144 6.64809125,3.30469144 C6.61684121,3.30469144 6.58559117,3.31250395 6.55434114,3.32031646 L3.46058745,4.08594237 L4.79652654,0.468750559 C4.81996407,0.421875503 4.83558909,0.375000447 4.83558909,0.328125391 C4.83558909,0.148437677 4.6793389,0 4.48402617,0 L1.92152311,0 C1.75746042,0 1.61683525,0.101562621 1.5777727,0.250000298 L0.00745833152,6.69532048 C-0.0159791964,6.80469561 0.0152708408,6.92188325 0.109020953,7.00000834 C0.171521027,7.05469591 0.265271139,7.08594595 0.351208741,7.08594595 C0.382458779,7.08594595 0.413708816,7.08594595 0.444958853,7.07813344 L3.61683763,6.28907 L2.0777733,12.6015775 C2.03871075,12.7656402 2.14027337,12.9297029 2.31214858,12.9843905 C2.35121113,12.992203 2.39027367,13.0000155 2.42152371,13.0000155 C2.56214888,13.0000155 2.68714903,12.9218904 2.7496491,12.8047028 L6.96840413,3.76562949 C7.02309169,3.64844185 6.99965417,3.51562919 6.91371656,3.42187908 L6.91371656,3.42187908 Z" id="data-ui-builder"></path>
    </g>
</svg>