<?xml version="1.0" encoding="UTF-8" standalone="no"?>
<svg width="12px" height="12px" viewBox="0 0 12 12" version="1.1" xmlns="http://www.w3.org/2000/svg" xmlns:xlink="http://www.w3.org/1999/xlink">
    <!-- Generator: Sketch 3.8.3 (29802) - http://www.bohemiancoding.com/sketch -->
    <title>help-icon</title>
    <desc>Created with Sketch.</desc>
    <defs></defs>
    <g id="Page-1" stroke="none" stroke-width="1" fill="none" fill-rule="evenodd">
        <g id="Icons" transform="translate(-428.000000, -12.000000)" fill="white">
            <path d="M435.000008,21.7499985 C435.000008,21.8906237 434.890633,21.9999988 434.750008,21.9999988 L433.250006,21.9999988 C433.109381,21.9999988 433.000006,21.8906237 433.000006,21.7499985 L433.000006,20.2499967 C433.000006,20.1093716 433.109381,19.9999964 433.250006,19.9999964 L434.750008,19.9999964 C434.890633,19.9999964 435.000008,20.1093716 435.000008,20.2499967 L435.000008,21.7499985 Z M437.000011,16.4999923 C437.000011,17.6874937 436.18751,18.1406192 435.593759,18.4765571 C435.226571,18.6874949 435.000008,19.0703078 435.000008,19.2499955 C435.000008,19.3906207 434.890633,19.4999958 434.750008,19.4999958 L433.250006,19.4999958 C433.109381,19.4999958 433.000006,19.3906207 433.000006,19.2499955 L433.000006,18.9687452 C433.000006,18.2109318 433.757819,17.5624935 434.312508,17.3124932 C434.789071,17.093743 435.000008,16.8906177 435.000008,16.4843672 C435.000008,16.1406168 434.53907,15.8203039 434.03907,15.8203039 C433.757819,15.8203039 433.500007,15.9140541 433.367194,16.0078042 C433.218756,16.1171793 433.062506,16.2578045 432.695318,16.726555 C432.648443,16.7890551 432.570318,16.8203051 432.500005,16.8203051 C432.445318,16.8203051 432.39063,16.8046801 432.351568,16.7734301 L431.320316,15.9921791 C431.218754,15.9140541 431.187504,15.7734289 431.257816,15.6640538 C431.929692,14.5468649 432.882818,13.9999893 434.156257,13.9999893 C435.500009,13.9999893 437.000011,15.070303 437.000011,16.4999923 L437.000011,16.4999923 Z M440.000014,17.999994 C440.000014,14.6874901 437.312511,11.9999869 434.000007,11.9999869 C430.687503,11.9999869 428,14.6874901 428,17.999994 C428,21.312498 430.687503,24.0000012 434.000007,24.0000012 C437.312511,24.0000012 440.000014,21.312498 440.000014,17.999994 L440.000014,17.999994 Z" id="help-icon"></path>
        </g>
    </g>
</svg>