<?xml version="1.0" encoding="UTF-8" standalone="no"?>
<svg width="12px" height="14px" viewBox="0 0 12 14" version="1.1" xmlns="http://www.w3.org/2000/svg" xmlns:xlink="http://www.w3.org/1999/xlink">
    <!-- Generator: Sketch 3.8.3 (29802) - http://www.bohemiancoding.com/sketch -->
    <title>new-project</title>
    <desc>Created with Sketch.</desc>
    <defs></defs>
    <g id="Page-1" stroke="none" stroke-width="1" fill="white" fill-rule="evenodd">
        <path d="M8.00000954,4.00000477 L11.6875139,4.00000477 C11.6172013,3.89062964 11.5468888,3.79687953 11.4687637,3.71875443 L8.28125987,0.531250633 C8.20313478,0.45312554 8.10938467,0.382812956 8.00000954,0.312500373 L8.00000954,4.00000477 Z M7.00000834,4.25000507 L7.00000834,0 L0.750000894,0 C0.3359379,0 0,0.3359379 0,0.750000894 L0,13.2500158 C0,13.6640788 0.3359379,14.0000167 0.750000894,14.0000167 L11.2500134,14.0000167 C11.6640764,14.0000167 12.0000143,13.6640788 12.0000143,13.2500158 L12.0000143,5.00000596 L7.75000924,5.00000596 C7.33594625,5.00000596 7.00000834,4.66406806 7.00000834,4.25000507 Z M9,8.59090909 C9,8.36505682 8.81676136,8.18181818 8.59090909,8.18181818 L6.81818182,8.18181818 L6.81818182,6.40909091 C6.81818182,6.18323864 6.63494318,6 6.40909091,6 L5.59090909,6 C5.36505682,6 5.18181818,6.18323864 5.18181818,6.40909091 L5.18181818,8.18181818 L3.40909091,8.18181818 C3.18323864,8.18181818 3,8.36505682 3,8.59090909 L3,9.40909091 C3,9.63494318 3.18323864,9.81818182 3.40909091,9.81818182 L5.18181818,9.81818182 L5.18181818,11.5909091 C5.18181818,11.8167614 5.36505682,12 5.59090909,12 L6.40909091,12 C6.63494318,12 6.81818182,11.8167614 6.81818182,11.5909091 L6.81818182,9.81818182 L8.59090909,9.81818182 C8.81676136,9.81818182 9,9.63494318 9,9.40909091 L9,8.59090909 Z" id="new-project"></path>
    </g>
</svg>