<?xml version="1.0" encoding="UTF-8" standalone="no"?>
<svg width="15px" height="11px" viewBox="0 0 15 11" version="1.1" xmlns="http://www.w3.org/2000/svg" xmlns:xlink="http://www.w3.org/1999/xlink">
    <!-- Generator: Sketch 3.8.3 (29802) - http://www.bohemiancoding.com/sketch -->
    <title>open-project</title>
    <desc>Created with Sketch.</desc>
    <defs></defs>
    <g id="Page-1" stroke="none" stroke-width="1" fill="white" fill-rule="evenodd">
        <path d="M14.679705,6.43750767 C14.679705,6.08594476 14.281267,6.00000715 14.0000167,6.00000715 L5.50000656,6.00000715 C4.81250574,6.00000715 3.89062964,6.42188266 3.4375041,6.95313329 L0.812500969,10.046887 C0.68750082,10.1875121 0.57031318,10.3750124 0.57031318,10.5625126 C0.57031318,10.9140755 0.968751155,11.0000131 1.25000149,11.0000131 L9.75001162,11.0000131 C10.4375124,11.0000131 11.3593885,10.5781376 11.8125141,10.046887 L14.4375172,6.95313329 C14.5625174,6.81250812 14.679705,6.6250079 14.679705,6.43750767 L14.679705,6.43750767 Z M12.0000143,3.75000447 C12.0000143,2.78906582 11.2109509,2.00000238 10.2500122,2.00000238 L6.00000715,2.00000238 L6.00000715,1.75000209 C6.00000715,0.789063441 5.21094371,0 4.25000507,0 L1.75000209,0 C0.789063441,0 0,0.789063441 0,1.75000209 L0,9.25001103 C0,9.3125111 0.00781250931,9.38282369 0.00781250931,9.44532376 L0.0468750559,9.3984487 L2.67969069,6.30469502 C3.31250395,5.55469412 4.52344289,5.00000596 5.50000656,5.00000596 L12.0000143,5.00000596 L12.0000143,3.75000447 Z" id="open-project"></path>
    </g>
</svg>