<?xml version="1.0" encoding="UTF-8" standalone="no"?>
<svg width="15px" height="13px" viewBox="0 0 15 13" version="1.1" xmlns="http://www.w3.org/2000/svg" xmlns:xlink="http://www.w3.org/1999/xlink">
    <!-- Generator: Sketch 3.8.3 (29802) - http://www.bohemiancoding.com/sketch -->
    <title>preview-app</title>
    <desc>Created with Sketch.</desc>
    <defs></defs>
    <g id="Page-1" stroke="none" stroke-width="1" fill="white" fill-rule="evenodd">
        <path d="M14.0000167,7.75000924 C14.0000167,7.8828219 13.882829,8.00000954 13.7500164,8.00000954 L1.25000149,8.00000954 C1.11718883,8.00000954 1.00000119,7.8828219 1.00000119,7.75000924 L1.00000119,1.25000149 C1.00000119,1.11718883 1.11718883,1.00000119 1.25000149,1.00000119 L13.7500164,1.00000119 C13.882829,1.00000119 14.0000167,1.11718883 14.0000167,1.25000149 L14.0000167,7.75000924 Z M15.0000179,1.25000149 C15.0000179,0.562500671 14.4375172,0 13.7500164,0 L1.25000149,0 C0.562500671,0 0,0.562500671 0,1.25000149 L0,9.75001162 C0,10.4375124 0.562500671,11.0000131 1.25000149,11.0000131 L5.50000656,11.0000131 C5.50000656,11.6797014 5.00000596,12.2109521 5.00000596,12.5000149 C5.00000596,12.7734527 5.22656873,13.0000155 5.50000656,13.0000155 L9.50001132,13.0000155 C9.77344915,13.0000155 10.0000119,12.7734527 10.0000119,12.5000149 C10.0000119,12.2265771 9.50001132,11.6640764 9.50001132,11.0000131 L13.7500164,11.0000131 C14.4375172,11.0000131 15.0000179,10.4375124 15.0000179,9.75001162 L15.0000179,1.25000149 Z" id="preview-app"></path>
    </g>
</svg>