<?xml version="1.0" encoding="UTF-8" standalone="no"?>
<svg width="12px" height="12px" viewBox="0 0 12 12" version="1.1" xmlns="http://www.w3.org/2000/svg" xmlns:xlink="http://www.w3.org/1999/xlink">
    <!-- Generator: Sketch 3.8.3 (29802) - http://www.bohemiancoding.com/sketch -->
    <title>project-settings</title>
    <desc>Created with Sketch.</desc>
    <defs></defs>
    <g id="Page-1" stroke="none" stroke-width="1" fill="white" fill-rule="evenodd">
        <path d="M8.00000954,6.00000715 C8.00000954,7.10157097 7.10157097,8.00000954 6.00000715,8.00000954 C4.89844334,8.00000954 4.00000477,7.10157097 4.00000477,6.00000715 C4.00000477,4.89844334 4.89844334,4.00000477 6.00000715,4.00000477 C7.10157097,4.00000477 8.00000954,4.89844334 8.00000954,6.00000715 L8.00000954,6.00000715 Z M12.0000143,5.14844364 C12.0000143,5.01563098 11.9062642,4.89063083 11.7734515,4.8671933 L10.3437623,4.64844304 C10.2656372,4.39063023 10.1562621,4.13281743 10.0234494,3.88281713 C10.2890748,3.51562919 10.5781376,3.17187878 10.8437629,2.81250335 C10.8828255,2.75781579 10.906263,2.70312822 10.906263,2.63281564 C10.906263,2.57031556 10.890638,2.50781549 10.8515754,2.46094043 C10.52345,2.00000238 9.97657439,1.51562681 9.5625114,1.13281385 C9.50782383,1.08593879 9.43751125,1.05468876 9.36719867,1.05468876 C9.29688608,1.05468876 9.2265735,1.07812629 9.17969844,1.12500134 L8.07032212,1.96093984 C7.84375935,1.8437522 7.60938407,1.75000209 7.36719628,1.67187699 L7.14844602,0.234375279 C7.132821,0.101562621 7.00782085,0 6.86719569,0 L5.13281862,0 C4.99219345,0 4.88281832,0.0937501118 4.85156828,0.218750261 C4.72656813,0.68750082 4.67969308,1.19531392 4.62500551,1.67187699 C4.38281772,1.75000209 4.14062994,1.85156471 3.91406717,1.96875235 L2.83594088,1.13281385 C2.77344081,1.08593879 2.70312822,1.05468876 2.63281564,1.05468876 C2.36719032,1.05468876 1.31250156,2.19531512 1.12500134,2.45312792 C1.08593879,2.50781549 1.05468876,2.56250305 1.05468876,2.63281564 C1.05468876,2.70312822 1.08593879,2.7656283 1.13281385,2.82031586 C1.4218767,3.17187878 1.70312703,3.5234417 1.96875235,3.89844215 C1.8437522,4.13281743 1.74218958,4.36719271 1.66406448,4.617193 L0.210937751,4.83594326 C0.0937501118,4.85938079 0,5.00000596 0,5.1171936 L0,6.85157067 C0,6.98438333 0.0937501118,7.10938348 0.22656277,7.132821 L1.65625197,7.34375875 C1.73437707,7.60938407 1.8437522,7.86719688 1.97656486,8.11719718 C1.71093954,8.48438511 1.4218767,8.82813552 1.15625138,9.18751095 C1.11718883,9.24219852 1.0937513,9.29688608 1.0937513,9.36719867 C1.0937513,9.42969874 1.10937632,9.49219882 1.14843887,9.54688638 C1.47656426,10.0000119 2.02343991,10.4843875 2.43750291,10.8593879 C2.49219047,10.9140755 2.56250305,10.9453255 2.63281564,10.9453255 C2.70312822,10.9453255 2.77344081,10.921888 2.82812837,10.875013 L3.92969218,10.0390745 C4.15625495,10.1562621 4.39063023,10.2500122 4.63281802,10.3281373 L4.85156828,11.765639 C4.8671933,11.8984517 4.99219345,12.0000143 5.13281862,12.0000143 L6.86719569,12.0000143 C7.00782085,12.0000143 7.11719598,11.9062642 7.14844602,11.781264 C7.27344617,11.3125135 7.32032123,10.8047004 7.37500879,10.3281373 C7.61719658,10.2500122 7.85938437,10.1484496 8.08594714,10.031262 L9.16407342,10.875013 C9.2265735,10.9140755 9.29688608,10.9453255 9.36719867,10.9453255 C9.63282398,10.9453255 10.6875127,9.79688668 10.875013,9.54688638 C10.921888,9.49219882 10.9453255,9.43751125 10.9453255,9.36719867 C10.9453255,9.29688608 10.9140755,9.2265735 10.8672005,9.17188593 C10.5781376,8.82032301 10.2968873,8.4765726 10.031262,8.09375965 C10.1562621,7.86719688 10.2500122,7.6328216 10.3359498,7.3828213 L11.781264,7.16407104 C11.9062642,7.14063351 12.0000143,7.00000834 12.0000143,6.8828207 L12.0000143,5.14844364 Z" id="project-settings"></path>
    </g>
</svg>