<?xml version="1.0" encoding="UTF-8" standalone="no"?>
<svg width="15px" height="11px" viewBox="0 0 15 11" version="1.1" xmlns="http://www.w3.org/2000/svg" xmlns:xlink="http://www.w3.org/1999/xlink">
    <!-- Generator: Sketch 3.8.3 (29802) - http://www.bohemiancoding.com/sketch -->
    <title>publish</title>
    <desc>Created with Sketch.</desc>
    <defs></defs>
    <g id="Page-1" stroke="none" stroke-width="1" fill="white" fill-rule="evenodd">
        <path d="M10.0000119,5.75000685 C10.0000119,5.88281951 9.89063679,6.00000715 9.75001162,6.00000715 L8.00000954,6.00000715 L8.00000954,8.75001043 C8.00000954,8.88282309 7.8828219,9.00001073 7.75000924,9.00001073 L6.25000745,9.00001073 C6.11719479,9.00001073 6.00000715,8.88282309 6.00000715,8.75001043 L6.00000715,6.00000715 L4.25000507,6.00000715 C4.1093799,6.00000715 4.00000477,5.89063202 4.00000477,5.75000685 C4.00000477,5.67969427 4.03125481,5.6171942 4.07812986,5.56250663 L6.82032063,2.82031586 C6.86719569,2.77344081 6.93750827,2.75000328 7.00000834,2.75000328 C7.07032093,2.75000328 7.132821,2.77344081 7.17969606,2.82031586 L9.92969934,5.57031914 C9.97657439,5.6171942 10.0000119,5.68750678 10.0000119,5.75000685 L10.0000119,5.75000685 Z M15.0000179,8.00000954 C15.0000179,6.60938288 14.0390792,5.39844394 12.6797026,5.07813105 C12.8906404,4.75781817 13.0000155,4.38281772 13.0000155,4.00000477 C13.0000155,2.89844096 12.1015769,2.00000238 11.0000131,2.00000238 C10.52345,2.00000238 10.062512,2.17187759 9.70313657,2.48437796 C9.08594833,0.984376173 7.62500909,0 6.00000715,0 C3.78906702,0 2.00000238,1.78906463 2.00000238,4.00000477 C2.00000238,4.1093799 2.00781489,4.21875503 2.0156274,4.33594267 C0.789063441,4.90625585 0,6.14063232 0,7.50000894 C0,9.42969874 1.57031437,11.0000131 3.50000417,11.0000131 L12.0000143,11.0000131 C13.6562663,11.0000131 15.0000179,9.65626151 15.0000179,8.00000954 L15.0000179,8.00000954 Z" id="publish"></path>
    </g>
</svg>