<?xml version="1.0" encoding="UTF-8" standalone="no"?>
<svg width="12px" height="14px" viewBox="0 0 12 14" version="1.1" xmlns="http://www.w3.org/2000/svg" xmlns:xlink="http://www.w3.org/1999/xlink">
    <!-- Generator: Sketch 3.8.3 (29802) - http://www.bohemiancoding.com/sketch -->
    <title>save-project</title>
    <desc>Created with Sketch.</desc>
    <defs></defs>
    <g id="Page-1" stroke="none" stroke-width="1" fill="white" fill-rule="evenodd">
        <path d="M8.00000954,4.00000477 L11.6875139,4.00000477 C11.6172013,3.89062964 11.5468888,3.79687953 11.4687637,3.71875443 L8.28125987,0.531250633 C8.20313478,0.45312554 8.10938467,0.382812956 8.00000954,0.312500373 L8.00000954,4.00000477 Z M7.00000834,4.25000507 L7.00000834,0 L0.750000894,0 C0.3359379,0 0,0.3359379 0,0.750000894 L0,13.2500158 C0,13.6640788 0.3359379,14.0000167 0.750000894,14.0000167 L11.2500134,14.0000167 C11.6640764,14.0000167 12.0000143,13.6640788 12.0000143,13.2500158 L12.0000143,5.00000596 L7.75000924,5.00000596 C7.33594625,5.00000596 7.00000834,4.66406806 7.00000834,4.25000507 Z M8.89326587,6.63501682 L8.36666656,6.10841751 C8.29696959,6.03872054 8.20016824,6 8.1033669,6 C8.00656555,6 7.90976421,6.03872054 7.84006724,6.10841751 L5.29999995,8.65235685 L4.16161614,7.51010098 C4.09191917,7.44040401 3.99511782,7.40168347 3.89831648,7.40168347 C3.80151513,7.40168347 3.70471379,7.44040401 3.63501682,7.51010098 L3.10841751,8.03670029 C3.03872054,8.10639726 3,8.20319861 3,8.29999995 C3,8.3968013 3.03872054,8.49360264 3.10841751,8.56329961 L4.51010098,9.96498308 L5.03670029,10.4915824 C5.10639726,10.5612794 5.20319861,10.5999999 5.29999995,10.5999999 C5.3968013,10.5999999 5.49360264,10.5612794 5.56329961,10.4915824 L6.08989893,9.96498308 L8.89326587,7.16161614 C8.96296284,7.09191917 9.00168338,6.99511782 9.00168338,6.89831648 C9.00168338,6.80151513 8.96296284,6.70471379 8.89326587,6.63501682 Z" id="save-project"></path>
    </g>
</svg>